# xmcd
#
# Track frame offsets: 
#        150
#        18700
#        35267
#        54515
#        70197
#        86060
#        102292
#        120190
#        150680
#        168235
#        188220
#        209195
#        222685
#        237045
#
# Disc length: 3350 seconds
#
# Revision: 3
# Processed by: cddbd v1.5.2PL0 Copyright (c) Steve Scherf et al.
# Submitted via: ExactAudioCopyFreeDBPlugin 1.0
#
DISCID=c30d140e
DTITLE=Western Union - Greatest Hits Live
DYEAR=1990
DGENRE=Country
TTITLE0=Ich M Cht' So Gerne Mal Nach Nashville
TTITLE1=Dieselcowboys Und Country Music
TTITLE2=Gott, Ich Hoff Der Tag Wird Gut
TTITLE3=Auf Der Autobahn
TTITLE4=Wer Glaubst Du Wer Du Bist
TTITLE5=Unser Lied Im Radio
TTITLE6=Bi-Ba-Baby
TTITLE7=Transit Cowboy
TTITLE8=Eigentlich Brauch Ich Nur Dich
TTITLE9=B Renstark
TTITLE10=Der Liebe Gott Der Muss'n Cowboy Sein
TTITLE11=Oh Lonesome Me
TTITLE12=Tulsa Time
TTITLE13=Gimme Gimme Hust One More Chance
EXTD=
EXTT0=
EXTT1=
EXTT2=
EXTT3=
EXTT4=
EXTT5=
EXTT6=
EXTT7=
EXTT8=
EXTT9=
EXTT10=
EXTT11=
EXTT12=
EXTT13=
PLAYORDER=
